<?xml version="1.0" encoding="UTF-8"?>
<svg id="_圖層_1" data-name="圖層_1" xmlns="http://www.w3.org/2000/svg" viewBox="0 0 114.57 109.87">
  <defs>
    <style>
      .cls-1 {
        fill: #fff;
      }
    </style>
  </defs>
  <g>
    <g>
      <g>
        <rect class="cls-1" x="47.43" y="80.51" width="18.76" height="1.84"/>
        <path class="cls-1" d="M50.96,95.23h-1.84v-10.31h15.82v8.29c0,.77-.55,1.93-2.07,2h-.04s-2.55,0-2.55,0v-1.84h2.53c.26-.01.28-.09.29-.17v-6.43h-12.13v8.47ZM63.09,93.19s0,.02,0,.02v-.02Z"/>
        <rect class="cls-1" x="55.98" y="78.26" width="1.84" height="19.1"/>
      </g>
      <g>
        <path class="cls-1" d="M38.75,97.24h-2.8v-1.84h2.76c.26-.01.28-.09.29-.17v-12.14h1.84v12.16c0,.77-.55,1.93-2.07,2h-.02ZM39,95.23s0,.02,0,.02v-.02Z"/>
        <path class="cls-1" d="M25.18,86.64l-1.44-1.16c2.22-2.75,3.12-7.22,3.13-7.26h1.96c-.04.2-1.01,5.28-3.66,8.42Z"/>
        <path class="cls-1" d="M34.34,86.64l-1.44-1.16c2.22-2.75,3.12-7.22,3.13-7.26h1.96c-.04.2-1.01,5.28-3.66,8.42Z"/>
        <rect class="cls-1" x="27.02" y="81.58" width="6.06" height="1.84"/>
        <rect class="cls-1" x="35.36" y="81.58" width="7.28" height="1.84"/>
        <rect class="cls-1" x="28.2" y="83.09" width="1.84" height="14.13"/>
      </g>
      <g>
        <rect class="cls-1" x="71.48" y="80.51" width="8.64" height="1.84"/>
        <rect class="cls-1" x="75.47" y="81.56" width="1.84" height="12.6"/>
        <rect class="cls-1" x="76.99" y="86.57" width="2.82" height="1.84"/>
        <rect class="cls-1" x="72.04" y="85.03" width="1.84" height="9.93"/>
        <path class="cls-1" d="M71.07,96.62v-1.84c.05,0,5.24-.04,8.98-2.88l.58,1.7c-3.95,3.03-9.32,3.03-9.56,3.03Z"/>
        <path class="cls-1" d="M81.29,85.43l-1.09-1.56c1.67-1.87,1.72-5.57,1.72-5.61h1.84c0,.19-.02,4.6-2.48,7.17Z"/>
        <rect class="cls-1" x="82.31" y="81.42" width="7.53" height="1.84"/>
        <path class="cls-1" d="M80.56,97.31l-1.14-1.56c2.94-1,5.43-3.74,6.46-7.57.8-2.97.68-5.65.68-5.68l1.84-.09c0,.12.13,2.96-.73,6.2-1.17,4.41-3.63,7.41-7.11,8.69Z"/>
        <path class="cls-1" d="M89.01,97.31c-3.75-1.71-5.52-4.58-6.35-6.66-.89-2.25-.9-4.1-.9-4.18h1.84-.92.92s.02,1.63.8,3.56c1.03,2.54,3.15,4.55,5.68,5.71l-1.07,1.57Z"/>
      </g>
      <g>
        <path class="cls-1" d="M109.5,97.24h-2.99v-1.84h2.95c.26-.01.28-.09.29-.17v-11.81h1.84v11.84c0,.77-.55,1.93-2.07,2h-.02ZM109.75,95.23s0,.02,0,.02v-.02Z"/>
        <path class="cls-1" d="M96.31,97.31l-1.58-1.44c1.46-1.88,1.44-7.41,1.42-9.52v-5.98h17.43v1.84h-15.59v4.13c0,.83,0,8.35-1.69,10.97Z"/>
        <rect class="cls-1" x="104.19" y="78.26" width="1.84" height="2.17"/>
        <rect class="cls-1" x="104.52" y="84.93" width="9.07" height="1.84"/>
        <path class="cls-1" d="M99.57,91.1l-1.01-1.59c2.76-2.56,2.96-6.07,2.96-6.11h1.84c0,.17-.16,4.3-3.79,7.69Z"/>
        <rect class="cls-1" x="100.94" y="86.16" width="1.84" height="11.08"/>
        <path class="cls-1" d="M106.72,93.36l-1.67-2.77c-.05-.1-.32-.66-.32-1.42v-.71h1.84v.71c0,.28.08.5.11.56l1.61,2.68-1.58.95Z"/>
      </g>
      <g>
        <path class="cls-1" d="M10.54,97.14l-1.45-1.35c1.59-2.2,1.82-7.8,1.8-9.87v-5.58s1.84,0,1.84,0v5.57c0,.32.08,8.09-2.2,11.24Z"/>
        <rect class="cls-1" x="11.57" y="84.25" width="7.42" height="1.84"/>
        <rect class="cls-1" x="14.88" y="85.17" width="1.84" height="12.11"/>
        <path class="cls-1" d="M10.94,81.87l-.06-1.84s4.13-.15,7.22-1.34l.66,1.72c-3.38,1.3-7.64,1.46-7.82,1.46Z"/>
        <rect class="cls-1" x=".55" y="80.11" width="9.15" height="1.84"/>
        <rect class="cls-1" x=".55" y="84.64" width="9.15" height="1.84"/>
        <rect class="cls-1" y="88.15" width="9.7" height="1.84"/>
        <rect class="cls-1" x="4.25" y="85.76" width="1.84" height="11.53"/>
        <rect class="cls-1" x="2.13" y="81.16" width="1.84" height="4.66" transform="translate(-14.55 1.82) rotate(-10.07)"/>
        <rect class="cls-1" x="5.03" y="82.57" width="4.66" height="1.84" transform="translate(-76.14 76.15) rotate(-79.94)"/>
        <rect class="cls-1" x="4.2" y="78.15" width="1.84" height="2.28"/>
        <path class="cls-1" d="M.86,95.78l-.74-1.74c2.65-1.82,3.5-4.16,3.5-4.18l1.63.39c-.02.08-.15.74-.78,1.79-.81,1.36-2.03,2.62-3.61,3.74Z"/>
        <path class="cls-1" d="M7.88,94.7c-1.11-1.88-2.07-3.21-2.08-3.22l1.68-.91c.04.05.82,1.22,1.99,3.19l-1.59.94Z"/>
      </g>
    </g>
    <g>
      <path class="cls-1" d="M2.08,108.7H.93v-6.26h1.15v2.47h2.4v-2.47h1.15v6.26h-1.15v-2.7h-2.4v2.7Z"/>
      <path class="cls-1" d="M9.14,108.84c-.49,0-.91-.08-1.27-.25-.36-.17-.63-.35-.81-.55l.72-.74c.19.17.39.3.6.39.21.09.46.13.74.14.26,0,.46-.04.6-.13.14-.08.22-.21.22-.36,0-.15-.08-.26-.25-.31-.17-.05-.42-.1-.75-.15-.55-.07-.97-.21-1.25-.42-.28-.22-.42-.55-.42-1s.16-.8.49-1.06c.32-.26.79-.39,1.4-.39.4,0,.76.06,1.07.16.32.11.59.28.81.52l-.71.76c-.13-.14-.29-.25-.49-.32-.2-.07-.43-.11-.7-.11-.25,0-.43.04-.55.11-.12.07-.18.18-.18.32,0,.15.08.26.25.32.17.06.42.11.76.16.6.08,1.03.24,1.29.47.26.24.39.54.39.92,0,.45-.16.81-.49,1.1-.33.28-.81.43-1.45.43Z"/>
      <path class="cls-1" d="M13.61,103.54h-1.15v-1.11h1.15v1.11ZM13.6,108.7h-1.11v-4.57h1.11v4.57Z"/>
      <path class="cls-1" d="M16.47,108.7h-1.13v-4.57h1.13v.43c.11-.16.26-.29.47-.4.2-.11.44-.16.73-.16.45,0,.82.15,1.1.44.28.29.42.69.42,1.19v3.07h-1.11v-2.93c0-.24-.06-.42-.19-.55-.13-.13-.29-.19-.49-.19-.19,0-.37.05-.54.15-.17.1-.3.22-.37.36v3.17Z"/>
      <path class="cls-1" d="M22.59,108.84c-.63,0-1.12-.18-1.47-.54-.35-.36-.53-.86-.53-1.5v-.87c0-.58.18-1.04.54-1.4.36-.35.84-.53,1.44-.53.51,0,.92.12,1.23.36.31.24.52.53.62.87l-1.03.46c-.08-.22-.18-.38-.31-.5-.13-.11-.29-.17-.49-.17-.29,0-.51.09-.65.27-.14.18-.21.46-.21.84v.45c0,.43.07.74.22.93.15.19.36.28.63.28.22,0,.39-.05.52-.17.13-.12.23-.29.29-.51l1.02.42c-.09.36-.28.66-.58.91s-.72.38-1.26.38Z"/>
      <path class="cls-1" d="M26.89,108.7h-1.13v-6.26h1.13v2.11c.1-.13.25-.26.45-.38.2-.12.45-.18.75-.18.45,0,.82.15,1.1.44.28.29.42.69.42,1.19v3.07h-1.11v-2.92c0-.24-.06-.43-.18-.56-.12-.13-.29-.2-.5-.2s-.4.06-.57.17c-.17.11-.28.23-.34.34v3.17Z"/>
      <path class="cls-1" d="M35.11,104.13v4.57h-1.12v-.39c-.15.17-.32.3-.51.39-.19.09-.4.14-.63.14-.49,0-.87-.14-1.16-.43-.29-.29-.43-.69-.43-1.2v-3.06h1.13v2.92c0,.28.06.47.19.59s.29.17.47.17c.21,0,.39-.04.54-.13.15-.08.28-.21.39-.38v-3.18h1.12Z"/>
      <path class="cls-1" d="M41.92,108.83c-.82,0-1.45-.21-1.87-.64-.42-.42-.63-1.02-.63-1.8v-1.66c0-.69.21-1.26.64-1.72.43-.46,1.03-.69,1.8-.69.7,0,1.27.19,1.7.58.43.39.65.92.65,1.62h-1.15c0-.31-.1-.57-.3-.79-.2-.22-.5-.33-.9-.33s-.71.12-.95.37-.35.57-.35.95v1.69c0,.49.12.83.36,1.04.24.2.56.31.96.31s.68-.1.88-.29c.2-.19.3-.49.3-.89h1.15c0,.75-.21,1.31-.63,1.69-.42.38-.97.57-1.66.57Z"/>
      <path class="cls-1" d="M46.89,103.54h-1.15v-1.11h1.15v1.11ZM46.88,108.7h-1.11v-4.57h1.11v4.57Z"/>
      <path class="cls-1" d="M49.82,108.7c-.35,0-.61-.1-.77-.31s-.25-.49-.25-.84v-2.44h-.59v-.98h.59v-1.14h1.1v1.14h.81v.98h-.81v2.19c0,.13.03.23.09.3.06.07.14.11.26.11h.47v.98h-.89Z"/>
      <path class="cls-1" d="M53.23,108.02l-1.73-3.9h1.19l1.03,2.59.88-2.59h1.16l-1.67,4.57c-.13.35-.3.61-.5.76-.2.15-.5.23-.9.23h-.75v-.98h.67c.13,0,.22-.03.29-.08.07-.05.13-.14.18-.25l.15-.35Z"/>
      <path class="cls-1" d="M62.04,108.83c-.84,0-1.47-.22-1.89-.65-.43-.43-.64-1.02-.64-1.77v-1.69c0-.68.22-1.25.65-1.72.43-.46,1.04-.69,1.83-.69.7,0,1.27.19,1.7.57.44.38.66.91.66,1.6h-1.15c0-.29-.1-.54-.3-.76-.2-.22-.51-.33-.91-.33s-.72.12-.97.37c-.25.25-.37.56-.37.96v1.69c0,.48.12.82.36,1.03.24.21.58.31,1,.31.4,0,.7-.1.89-.3.2-.2.29-.48.29-.83v-.25h-1.23v-1.06h2.37v1.24c0,.73-.21,1.29-.63,1.69-.42.4-.98.6-1.68.6Z"/>
      <path class="cls-1" d="M65.63,106.85v-.93c0-.56.18-1.02.53-1.38.35-.36.84-.54,1.45-.54s1.1.18,1.45.54c.35.36.52.82.52,1.38v.93c0,.57-.17,1.04-.52,1.42-.35.38-.83.56-1.44.56s-1.12-.17-1.47-.52c-.35-.35-.52-.84-.52-1.46ZM67.6,105.03c-.29,0-.5.09-.63.27-.13.18-.2.5-.2.96v.36c0,.43.07.74.2.92.13.18.34.27.64.27s.51-.09.64-.28c.13-.19.19-.49.19-.9v-.36c0-.44-.07-.76-.2-.95-.13-.19-.35-.28-.64-.28Z"/>
      <path class="cls-1" d="M72.14,108.7l-1.67-4.57h1.2l1.02,3.21,1.01-3.21h1.2l-1.66,4.57h-1.09Z"/>
      <path class="cls-1" d="M77.84,108.83c-.69,0-1.2-.17-1.55-.5-.34-.33-.52-.84-.52-1.52v-.79c0-.63.18-1.13.54-1.48.36-.35.84-.53,1.45-.53s1.08.18,1.45.53.55.85.55,1.49v.84h-2.86c.01.37.09.62.23.77.14.15.39.22.73.22.23,0,.42-.05.56-.15.14-.1.25-.24.31-.41l.98.43c-.09.27-.27.52-.56.76-.29.24-.72.36-1.31.36ZM77.76,104.99c-.29,0-.5.08-.63.25-.13.17-.21.41-.22.74h1.72c0-.32-.07-.57-.22-.74-.14-.17-.36-.25-.65-.25Z"/>
      <path class="cls-1" d="M82.32,108.7h-1.13v-4.57h1.13v.44c.09-.15.24-.29.45-.4.21-.11.45-.17.73-.17.25,0,.47.05.67.16.2.1.34.21.43.32l-.66.86c-.07-.09-.17-.16-.29-.23-.12-.06-.27-.09-.43-.09-.2,0-.38.06-.54.17s-.29.25-.36.39v3.11Z"/>
      <path class="cls-1" d="M86.8,108.7h-1.13v-4.57h1.13v.43c.11-.16.26-.29.47-.4.2-.11.44-.16.73-.16.45,0,.82.15,1.1.44.28.29.42.69.42,1.19v3.07h-1.11v-2.93c0-.24-.06-.42-.19-.55-.13-.13-.29-.19-.49-.19-.19,0-.37.05-.54.15-.17.1-.3.22-.37.36v3.17Z"/>
      <path class="cls-1" d="M92.34,108.7h-1.13v-4.57h1.13v.45c.1-.16.26-.3.47-.41.21-.11.45-.17.72-.17.33,0,.6.07.81.2.21.14.37.31.48.52.11-.19.3-.36.56-.51.26-.15.53-.22.82-.22.49,0,.87.15,1.15.45.27.3.41.69.41,1.18v3.08h-1.12v-2.92c0-.24-.06-.43-.18-.56-.12-.13-.28-.2-.48-.2-.21,0-.4.04-.55.12-.15.08-.28.2-.39.37v3.18h-1.12v-2.93c0-.22-.06-.4-.18-.53-.12-.14-.28-.2-.48-.2s-.4.05-.57.15c-.17.1-.29.22-.36.35v3.17Z"/>
      <path class="cls-1" d="M101.24,108.83c-.69,0-1.2-.17-1.55-.5-.34-.33-.52-.84-.52-1.52v-.79c0-.63.18-1.13.54-1.48.36-.35.84-.53,1.45-.53s1.08.18,1.45.53.55.85.55,1.49v.84h-2.86c.01.37.09.62.23.77.14.15.39.22.73.22.23,0,.42-.05.56-.15.14-.1.25-.24.31-.41l.98.43c-.09.27-.27.52-.56.76-.29.24-.72.36-1.31.36ZM101.16,104.99c-.29,0-.5.08-.63.25-.13.17-.21.41-.22.74h1.72c0-.32-.07-.57-.22-.74-.14-.17-.36-.25-.65-.25Z"/>
      <path class="cls-1" d="M105.72,108.7h-1.13v-4.57h1.13v.43c.11-.16.26-.29.47-.4.2-.11.44-.16.73-.16.45,0,.82.15,1.1.44.28.29.42.69.42,1.19v3.07h-1.11v-2.93c0-.24-.06-.42-.19-.55-.13-.13-.29-.19-.49-.19-.19,0-.37.05-.54.15-.17.1-.3.22-.37.36v3.17Z"/>
      <path class="cls-1" d="M111.32,108.7c-.35,0-.61-.1-.77-.31s-.25-.49-.25-.84v-2.44h-.59v-.98h.59v-1.14h1.1v1.14h.81v.98h-.81v2.19c0,.13.03.23.09.3.06.07.14.11.26.11h.47v.98h-.89Z"/>
    </g>
  </g>
  <g>
    <path class="cls-1" d="M59.36,32.57c-.36-.12-.83-.12-1.2.14l-1.95,1.45c-.05.04-.12.04-.18,0l-1.95-1.45c-.37-.26-.84-.26-1.2-.14-3.82,1.28-6.55,4.74-6.94,8.73-.02.2.14.37.34.37h1.12c.5,0,.91-.37,1-.86.36-2.06,1.53-3.85,3.22-5.03v4.96c0,.19.15.34.34.34h1.64c.19,0,.34-.15.34-.34v-5.15l1.84,1.28c.21.14.48.14.68,0l1.84-1.28v5.15c0,.19.15.34.34.34h1.64c.19,0,.34-.15.34-.34v-4.96c1.69,1.17,2.86,2.97,3.22,5.03.09.49.5.86,1,.86h1.12c.2,0,.36-.17.34-.37-.39-3.98-3.12-7.45-6.94-8.73Z"/>
    <path class="cls-1" d="M65.16,45.05c.48,0,.9-.34.99-.82.01-.07.03-.15.04-.23.05-.29.07-.52.09-.68.02-.2-.14-.37-.34-.37h-8.64v-1.06c0-.19-.15-.34-.34-.34h-1.64c-.19,0-.34.15-.34.34v1.06h-8.66c-.2,0-.36.17-.34.37.02.16.04.38.09.68.01.08.03.16.04.23.09.48.51.82.99.82h7.88v1.29h-7.39c-.41,0-.68.44-.48.8,1.49,2.74,3.76,4.28,6.16,5.01.22.07.43-.1.43-.33v-1.04c0-.43-.27-.8-.67-.95-.75-.28-1.66-.74-2.29-1.47h4.24v3.78c0,.19.15.34.34.34h1.64c.19,0,.34-.15.34-.34v-3.78h4.22c-.63.74-1.54,1.19-2.29,1.47-.4.15-.67.52-.67.95v1.04c0,.23.22.39.43.33,2.39-.73,4.67-2.27,6.16-5.01.2-.36-.07-.8-.48-.8h-7.37v-1.29h7.86Z"/>
  </g>
  <g>
    <path class="cls-1" d="M38.49,31.33c.74.63,1.8,1.35,2.67,1.86,0,0,0,0,0,0,0,0,0,0,0,0,.87.5,2.03,1.06,2.94,1.39.18.06.39.05.56-.05.08-.05.16-.09.23-.13.09-.05.12-.16.07-.25-.16-.29-.26-.67-.01-1.33.22-.59.67-1.08.86-1.26,1.89-1.8,4.2-3.03,6.67-3.64.78.92,1.72,1.58,2.64,2.07.2.11.45-.04.46-.27l.41-17.68s.04-.1.15-.11c.12,0,.15.11.15.11l.41,17.68c0,.23.25.38.46.27.93-.51,1.88-1.17,2.67-2.11,2.45.61,4.74,1.84,6.61,3.63.19.19.64.67.86,1.26.25.66.15,1.04-.01,1.33-.05.09-.02.2.07.25.07.04.15.09.23.13.17.09.37.11.56.05.92-.32,2.07-.88,2.94-1.39,0,0,0,0,0,0,0,0,0,0,0,0h0c.87-.5,1.93-1.22,2.67-1.86.15-.13.23-.31.24-.51,0-.09,0-.19,0-.26,0-.1-.08-.18-.18-.19-.33,0-1.04-.05-1.65-.42-.83-.51-1.34-1.06-1.34-1.06h0c-2.51-2.74-5.7-4.65-9.15-5.64.03-.37.06-.74.06-1.15,0-5.91-3.79-17.73-5.12-21.72-.15-.44-.77-.44-.92,0-1.34,3.99-5.12,15.81-5.12,21.72,0,.42.02.81.06,1.19-3.47.98-6.67,2.9-9.19,5.65h0s-.5.55-1.34,1.06c-.61.37-1.32.42-1.65.42-.1,0-.18.08-.18.19,0,.08,0,.17,0,.26,0,.19.09.38.24.51Z"/>
    <path class="cls-1" d="M55.14,56.12c-.08-.05-.16-.09-.23-.13-.09-.05-.2-.02-.25.07-.17.28-.45.56-1.14.68-.62.1-1.27-.04-1.52-.11-2.5-.74-4.73-2.12-6.49-3.96.4-1.14.51-2.27.48-3.32,0-.23-.26-.37-.46-.26l-15.52,8.49s-.11.02-.17-.08c-.06-.1.02-.19.02-.19l15.11-9.2c.2-.12.2-.41,0-.53-.91-.56-1.96-1.04-3.16-1.26-.69-2.43-.77-5.02-.17-7.54.07-.26.26-.89.67-1.38.45-.54.83-.65,1.16-.65.1,0,.18-.08.18-.19,0-.08,0-.17,0-.26,0-.19-.09-.38-.24-.51-.74-.63-1.8-1.35-2.67-1.86h0s0,0,0,0c0,0,0,0,0,0h0c-.87-.5-2.03-1.06-2.94-1.39-.18-.06-.39-.05-.56.05-.08.05-.16.09-.23.13-.09.05-.12.16-.07.25.16.29.48.93.46,1.64-.03.98-.25,1.69-.25,1.69h0c-1.12,3.54-1.18,7.26-.31,10.75-.33.15-.67.32-1.02.52-5.12,2.96-13.46,12.15-16.25,15.3-.31.35,0,.89.46.8,4.12-.84,16.26-3.47,21.37-6.43.36-.21.69-.43,1-.65,2.58,2.51,5.85,4.32,9.48,5.13h0s.73.16,1.59.63c.63.34,1.03.94,1.19,1.22.05.09.16.12.25.07.07-.04.15-.08.23-.13.17-.1.28-.27.32-.46.18-.96.27-2.23.27-3.24h0c0-1.01-.09-2.29-.27-3.24-.04-.19-.15-.36-.32-.46Z"/>
    <path class="cls-1" d="M92.72,62.89c-2.79-3.15-11.14-12.34-16.25-15.3-.36-.21-.71-.38-1.06-.54.88-3.49.82-7.22-.3-10.78h0s-.23-.71-.25-1.69c-.02-.71.3-1.36.46-1.64.05-.09.02-.2-.07-.25-.07-.04-.15-.09-.23-.13-.17-.09-.37-.11-.56-.05-.92.32-2.07.88-2.94,1.39,0,0,0,0,0,0,0,0,0,0,0,0-.87.5-1.93,1.22-2.67,1.86-.15.13-.23.31-.24.51,0,.09,0,.19,0,.26,0,.1.08.18.18.19.33,0,.71.11,1.16.65.4.49.6,1.12.67,1.38.61,2.54.52,5.15-.18,7.6-1.18.22-2.22.7-3.11,1.25-.2.12-.19.41,0,.53l15.11,9.2s.07.09.02.19c-.06.1-.17.08-.17.08l-15.52-8.49c-.2-.11-.45.03-.46.26-.03,1.06.08,2.22.49,3.37-1.75,1.81-3.96,3.18-6.45,3.91-.25.07-.9.22-1.52.11-.7-.12-.98-.39-1.14-.68-.05-.09-.16-.12-.25-.07-.07.04-.15.08-.23.13-.17.1-.28.27-.32.46-.18.96-.27,2.23-.27,3.24h0s0,0,0,0c0,0,0,0,0,0h0c0,1.01.09,2.29.27,3.24.04.19.15.36.32.46.08.05.16.09.23.13.09.05.2.02.25-.07.17-.28.57-.88,1.19-1.22.86-.47,1.59-.63,1.59-.63h0c3.63-.81,6.88-2.61,9.46-5.11.3.21.61.42.96.62,5.12,2.95,17.25,5.59,21.37,6.43.46.09.77-.45.46-.8Z"/>
  </g>
</svg>