<?xml version="1.0" encoding="UTF-8"?>
<svg id="_圖層_1" data-name="圖層_1" xmlns="http://www.w3.org/2000/svg" viewBox="0 0 209.71 68.89">
  <defs>
    <style>
      .cls-1 {
        fill: #a5a5a5;
      }
    </style>
  </defs>
  <g>
    <g>
      <g>
        <rect class="cls-1" x="136.05" y="29.39" width="20.49" height="2.01"/>
        <path class="cls-1" d="M139.9,45.46h-2.01v-11.26h17.28v9.06c0,.84-.6,2.11-2.26,2.18h-.04s-2.79,0-2.79,0v-2.01h2.77c.29-.02.3-.1.31-.19v-7.02h-13.25v9.25ZM153.15,43.24s0,.02,0,.02v-.02Z"/>
        <rect class="cls-1" x="145.39" y="26.93" width="2.01" height="20.86"/>
      </g>
      <g>
        <path class="cls-1" d="M126.57,47.66h-3.06v-2.01h3.01c.29-.02.3-.1.31-.19v-13.26h2.01v13.28c0,.84-.6,2.11-2.26,2.18h-.02ZM126.83,45.46s0,.02,0,.02v-.02Z"/>
        <path class="cls-1" d="M111.75,36.08l-1.57-1.26c2.42-3.01,3.41-7.88,3.42-7.93h2.15c-.04.22-1.11,5.77-3.99,9.19Z"/>
        <path class="cls-1" d="M121.74,36.08l-1.57-1.26c2.42-3.01,3.41-7.88,3.42-7.93h2.15c-.04.22-1.11,5.77-3.99,9.19Z"/>
        <rect class="cls-1" x="113.75" y="30.55" width="6.62" height="2.01"/>
        <rect class="cls-1" x="122.86" y="30.55" width="7.95" height="2.01"/>
        <rect class="cls-1" x="115.05" y="32.2" width="2.01" height="15.43"/>
      </g>
      <g>
        <rect class="cls-1" x="162.31" y="29.39" width="9.44" height="2.01"/>
        <rect class="cls-1" x="166.66" y="30.53" width="2.01" height="13.77"/>
        <rect class="cls-1" x="168.33" y="36.01" width="3.09" height="2.01"/>
        <rect class="cls-1" x="162.92" y="34.32" width="2.01" height="10.85"/>
        <path class="cls-1" d="M161.86,46.98v-2.01c.06,0,5.72-.05,9.8-3.15l.64,1.86c-4.32,3.31-10.18,3.31-10.44,3.31Z"/>
        <path class="cls-1" d="M173.03,34.76l-1.19-1.7c1.82-2.04,1.88-6.09,1.88-6.13h2.01c0,.2-.03,5.03-2.71,7.83Z"/>
        <rect class="cls-1" x="174.14" y="30.38" width="8.23" height="2.01"/>
        <path class="cls-1" d="M172.23,47.74l-1.25-1.7c3.21-1.09,5.93-4.08,7.06-8.26.87-3.24.74-6.17.74-6.2l2.01-.1c0,.13.15,3.23-.8,6.77-1.28,4.81-3.97,8.1-7.77,9.5Z"/>
        <path class="cls-1" d="M181.45,47.74c-4.09-1.87-6.03-5-6.93-7.27-.98-2.45-.99-4.48-.99-4.56h2.01-1.01,1.01s.02,1.78.87,3.89c1.12,2.77,3.44,4.97,6.21,6.23l-1.17,1.71Z"/>
      </g>
      <g>
        <path class="cls-1" d="M203.84,47.66h-3.27v-2.01h3.22c.29-.02.3-.1.31-.19v-12.9h2.01v12.93c0,.84-.6,2.11-2.26,2.18h-.02ZM204.11,45.46s0,.02,0,.02v-.02Z"/>
        <path class="cls-1" d="M189.43,47.74l-1.72-1.57c1.6-2.05,1.57-8.09,1.55-10.4v-6.53h19.04v2.01h-17.03v4.51c0,.9,0,9.12-1.84,11.98Z"/>
        <rect class="cls-1" x="198.04" y="26.93" width="2.01" height="2.37"/>
        <rect class="cls-1" x="198.39" y="34.21" width="9.91" height="2.01"/>
        <path class="cls-1" d="M192.99,40.95l-1.11-1.73c3.01-2.79,3.23-6.63,3.23-6.67h2.01c0,.19-.18,4.69-4.14,8.4Z"/>
        <rect class="cls-1" x="194.49" y="35.56" width="2.01" height="12.11"/>
        <path class="cls-1" d="M200.8,43.42l-1.82-3.03c-.06-.11-.35-.72-.35-1.55v-.77h2.01v.77c0,.3.09.54.12.61l1.76,2.93-1.73,1.04Z"/>
      </g>
      <g>
        <path class="cls-1" d="M95.75,47.55l-1.58-1.48c1.74-2.41,1.99-8.51,1.96-10.78v-6.09s2.01,0,2.01,0v6.08c0,.35.08,8.84-2.4,12.27Z"/>
        <rect class="cls-1" x="96.88" y="33.47" width="8.11" height="2.01"/>
        <rect class="cls-1" x="100.5" y="34.48" width="2.01" height="13.23"/>
        <path class="cls-1" d="M96.19,30.87l-.07-2.01s4.52-.17,7.89-1.46l.72,1.88c-3.7,1.42-8.35,1.59-8.55,1.6Z"/>
        <rect class="cls-1" x="84.84" y="28.95" width="10" height="2.01"/>
        <rect class="cls-1" x="84.84" y="33.9" width="10" height="2.01"/>
        <rect class="cls-1" x="84.24" y="37.73" width="10.6" height="2.01"/>
        <rect class="cls-1" x="88.89" y="35.12" width="2.01" height="12.59"/>
        <rect class="cls-1" x="86.57" y="30.1" width="2.01" height="5.09" transform="translate(-4.36 15.81) rotate(-10.07)"/>
        <rect class="cls-1" x="89.73" y="31.64" width="5.09" height="2.01" transform="translate(44.01 117.8) rotate(-79.94)"/>
        <rect class="cls-1" x="88.83" y="26.81" width="2.01" height="2.49"/>
        <path class="cls-1" d="M85.18,46.06l-.81-1.91c2.89-1.99,3.82-4.55,3.82-4.57l1.78.43c-.02.09-.17.81-.85,1.96-.89,1.49-2.22,2.86-3.94,4.09Z"/>
        <path class="cls-1" d="M92.85,44.89c-1.21-2.05-2.26-3.5-2.27-3.51l1.84-.99c.04.05.9,1.34,2.17,3.48l-1.73,1.02Z"/>
      </g>
    </g>
    <g>
      <path class="cls-1" d="M86.51,60.17h-1.25v-6.83h1.25v2.69h2.62v-2.69h1.26v6.83h-1.26v-2.95h-2.62v2.95Z"/>
      <path class="cls-1" d="M94.22,60.32c-.53,0-.99-.09-1.39-.27-.39-.18-.69-.38-.89-.6l.79-.8c.2.19.42.33.65.42.23.1.5.15.8.15.28,0,.5-.05.65-.14.15-.09.24-.23.24-.4,0-.17-.09-.28-.27-.34-.18-.06-.46-.11-.82-.16-.6-.07-1.06-.23-1.36-.46-.31-.24-.46-.6-.46-1.09s.18-.88.53-1.16c.36-.28.86-.42,1.53-.42.44,0,.83.06,1.17.18.35.12.64.31.89.56l-.78.83c-.14-.16-.32-.27-.54-.35-.21-.08-.47-.12-.76-.12-.27,0-.47.04-.6.12-.13.08-.2.2-.2.35,0,.17.09.28.27.34.18.06.46.12.83.17.66.09,1.13.26,1.41.52.28.26.42.59.42,1,0,.49-.18.89-.54,1.2-.36.31-.89.46-1.58.46Z"/>
      <path class="cls-1" d="M99.11,54.55h-1.26v-1.22h1.26v1.22ZM99.09,60.17h-1.22v-4.99h1.22v4.99Z"/>
      <path class="cls-1" d="M102.23,60.17h-1.23v-4.99h1.23v.47c.12-.17.29-.32.51-.43.22-.12.49-.17.8-.17.49,0,.89.16,1.2.48.3.32.46.75.46,1.3v3.35h-1.22v-3.2c0-.26-.07-.46-.21-.6-.14-.14-.32-.21-.54-.21-.21,0-.41.05-.59.16-.19.11-.32.24-.41.39v3.46Z"/>
      <path class="cls-1" d="M108.91,60.32c-.69,0-1.22-.2-1.61-.59-.38-.39-.58-.94-.58-1.64v-.95c0-.63.2-1.14.59-1.53.39-.38.92-.58,1.57-.58.55,0,1,.13,1.34.39.34.26.57.58.68.95l-1.13.5c-.08-.24-.2-.42-.34-.54-.14-.12-.32-.18-.53-.18-.32,0-.55.1-.71.3-.15.2-.23.51-.23.92v.49c0,.47.08.81.24,1.02.16.21.39.31.69.31.24,0,.43-.05.57-.18.14-.13.25-.31.32-.56l1.12.46c-.1.39-.31.72-.64,1-.33.28-.79.42-1.38.42Z"/>
      <path class="cls-1" d="M113.61,60.17h-1.23v-6.83h1.23v2.31c.11-.14.27-.28.49-.41.22-.13.49-.2.81-.2.49,0,.89.16,1.2.48.3.32.46.75.46,1.3v3.35h-1.22v-3.19c0-.26-.07-.46-.2-.61-.13-.14-.31-.21-.54-.21s-.44.06-.63.18c-.18.12-.31.25-.38.37v3.46Z"/>
      <path class="cls-1" d="M122.59,55.18v4.99h-1.23v-.43c-.17.19-.35.33-.56.42-.21.1-.43.15-.68.15-.53,0-.95-.16-1.27-.47-.31-.32-.47-.75-.47-1.31v-3.35h1.23v3.19c0,.3.07.52.21.64.14.13.31.19.51.19.23,0,.42-.05.59-.14.17-.09.31-.23.43-.42v-3.47h1.23Z"/>
      <path class="cls-1" d="M130.03,60.31c-.9,0-1.58-.23-2.04-.69-.46-.46-.69-1.12-.69-1.96v-1.82c0-.75.23-1.38.7-1.88.47-.5,1.12-.76,1.96-.76.76,0,1.38.21,1.86.63.47.42.71,1.01.71,1.77h-1.25c0-.33-.11-.62-.33-.86-.22-.24-.55-.36-.98-.36s-.78.14-1.03.41c-.25.27-.38.62-.38,1.04v1.84c0,.53.13.91.39,1.13.26.22.61.34,1.05.34s.74-.1.96-.31c.22-.21.33-.53.33-.97h1.25c0,.82-.23,1.43-.69,1.84-.46.41-1.06.62-1.82.62Z"/>
      <path class="cls-1" d="M135.46,54.55h-1.26v-1.22h1.26v1.22ZM135.44,60.17h-1.22v-4.99h1.22v4.99Z"/>
      <path class="cls-1" d="M138.65,60.17c-.38,0-.66-.11-.85-.34-.18-.23-.27-.53-.27-.91v-2.67h-.64v-1.07h.64v-1.24h1.2v1.24h.89v1.07h-.89v2.4c0,.14.03.25.09.33.06.08.16.12.28.12h.51v1.07h-.97Z"/>
      <path class="cls-1" d="M142.38,59.44l-1.89-4.26h1.3l1.13,2.83.97-2.83h1.27l-1.82,4.99c-.14.39-.33.66-.55.83-.22.17-.55.25-.98.25h-.82v-1.07h.73c.14,0,.24-.03.32-.09.07-.06.14-.15.19-.27l.16-.38Z"/>
      <path class="cls-1" d="M152,60.31c-.91,0-1.6-.24-2.07-.71-.47-.47-.7-1.11-.7-1.93v-1.84c0-.74.24-1.37.71-1.87.47-.5,1.14-.76,2-.76.76,0,1.38.21,1.86.63.48.42.72,1,.72,1.74h-1.25c0-.32-.11-.59-.33-.83-.22-.24-.55-.36-.99-.36s-.79.13-1.06.4c-.27.27-.4.62-.4,1.05v1.84c0,.52.13.89.4,1.12.27.23.63.35,1.1.35.44,0,.76-.11.97-.33.21-.22.32-.52.32-.91v-.28h-1.34v-1.16h2.58v1.35c0,.79-.23,1.41-.69,1.84s-1.07.65-1.83.65Z"/>
      <path class="cls-1" d="M155.92,58.16v-1.02c0-.61.19-1.11.58-1.5.38-.39.91-.59,1.59-.59s1.2.2,1.58.59c.38.39.57.89.57,1.5v1.02c0,.62-.19,1.14-.57,1.55-.38.41-.91.62-1.57.62s-1.22-.19-1.6-.57c-.38-.38-.57-.91-.57-1.59ZM158.08,56.16c-.32,0-.55.1-.69.3-.14.2-.21.55-.21,1.05v.39c0,.47.07.81.21,1,.14.2.38.3.7.3s.56-.1.7-.31c.14-.21.21-.54.21-.99v-.39c0-.48-.07-.83-.22-1.03-.15-.21-.38-.31-.7-.31Z"/>
      <path class="cls-1" d="M163.03,60.17l-1.82-4.99h1.31l1.11,3.51,1.1-3.51h1.31l-1.82,4.99h-1.19Z"/>
      <path class="cls-1" d="M169.26,60.31c-.75,0-1.31-.18-1.69-.55-.38-.36-.56-.92-.56-1.66v-.86c0-.69.2-1.23.59-1.62.4-.39.92-.58,1.58-.58s1.18.19,1.58.58c.4.38.6.93.6,1.62v.91h-3.12c.01.4.1.68.25.84.16.16.42.24.79.24.26,0,.46-.06.62-.17.16-.11.27-.26.34-.45l1.06.47c-.1.29-.3.57-.61.83-.31.26-.79.39-1.44.39ZM169.17,56.13c-.32,0-.55.09-.69.27-.15.18-.23.45-.24.81h1.88c0-.35-.08-.62-.24-.8-.16-.19-.4-.28-.71-.28Z"/>
      <path class="cls-1" d="M174.15,60.17h-1.23v-4.99h1.23v.48c.1-.17.26-.31.49-.43.23-.12.5-.18.8-.18.27,0,.52.06.73.17.21.11.37.23.47.35l-.72.94c-.08-.1-.18-.18-.32-.25-.13-.07-.29-.1-.47-.1-.21,0-.41.06-.6.19-.18.13-.31.27-.39.43v3.4Z"/>
      <path class="cls-1" d="M179.04,60.17h-1.23v-4.99h1.23v.47c.12-.17.29-.32.51-.43.22-.12.49-.17.8-.17.49,0,.89.16,1.2.48.3.32.46.75.46,1.3v3.35h-1.22v-3.2c0-.26-.07-.46-.21-.6-.14-.14-.32-.21-.54-.21-.21,0-.41.05-.59.16-.19.11-.32.24-.41.39v3.46Z"/>
      <path class="cls-1" d="M185.09,60.17h-1.23v-4.99h1.23v.49c.11-.17.28-.32.51-.45.23-.13.49-.19.79-.19.36,0,.65.07.89.22.23.15.41.34.53.57.13-.21.33-.39.61-.55.28-.16.58-.24.89-.24.54,0,.95.16,1.25.49.3.33.45.75.45,1.28v3.36h-1.23v-3.18c0-.26-.06-.46-.19-.61-.13-.14-.3-.21-.52-.21-.23,0-.43.05-.6.13-.17.09-.31.22-.43.4v3.47h-1.23v-3.2c0-.24-.06-.43-.19-.58-.13-.15-.3-.22-.52-.22s-.43.05-.62.16c-.18.11-.32.24-.39.38v3.46Z"/>
      <path class="cls-1" d="M194.81,60.31c-.75,0-1.31-.18-1.69-.55-.38-.36-.56-.92-.56-1.66v-.86c0-.69.2-1.23.59-1.62.4-.39.92-.58,1.58-.58s1.18.19,1.58.58c.4.38.6.93.6,1.62v.91h-3.12c.01.4.1.68.25.84.16.16.42.24.79.24.26,0,.46-.06.62-.17.16-.11.27-.26.34-.45l1.06.47c-.1.29-.3.57-.61.83-.31.26-.79.39-1.44.39ZM194.72,56.13c-.32,0-.55.09-.69.27-.15.18-.23.45-.24.81h1.88c0-.35-.08-.62-.24-.8-.16-.19-.4-.28-.71-.28Z"/>
      <path class="cls-1" d="M199.71,60.17h-1.23v-4.99h1.23v.47c.12-.17.29-.32.51-.43.22-.12.49-.17.8-.17.49,0,.89.16,1.2.48.3.32.46.75.46,1.3v3.35h-1.22v-3.2c0-.26-.07-.46-.21-.6-.14-.14-.32-.21-.54-.21-.21,0-.41.05-.59.16-.19.11-.32.24-.41.39v3.46Z"/>
      <path class="cls-1" d="M205.82,60.17c-.38,0-.66-.11-.85-.34-.18-.23-.27-.53-.27-.91v-2.67h-.64v-1.07h.64v-1.24h1.2v1.24h.89v1.07h-.89v2.4c0,.14.03.25.09.33.06.08.16.12.28.12h.51v1.07h-.97Z"/>
    </g>
  </g>
  <g>
    <path class="cls-1" d="M42.06,34.8c-.37-.12-.85-.13-1.23.14l-2.01,1.49c-.05.04-.13.04-.18,0l-2.01-1.49c-.38-.27-.86-.27-1.23-.14-3.94,1.32-6.75,4.89-7.15,8.99-.02.2.15.38.35.38h1.15c.52,0,.94-.38,1.03-.89.37-2.12,1.57-3.97,3.32-5.18v5.11c0,.19.16.35.35.35h1.69c.19,0,.35-.16.35-.35v-5.31l1.89,1.32c.21.15.49.15.7,0l1.89-1.32v5.31c0,.19.16.35.35.35h1.69c.19,0,.35-.16.35-.35v-5.11c1.74,1.21,2.94,3.06,3.32,5.18.09.51.51.89,1.03.89h1.15c.21,0,.37-.18.35-.38-.4-4.1-3.21-7.67-7.15-8.99Z"/>
    <path class="cls-1" d="M48.03,47.66c.5,0,.93-.35,1.02-.84.01-.07.03-.15.04-.23.05-.3.07-.53.09-.7.02-.21-.14-.38-.35-.38h-8.9v-1.09c0-.19-.16-.35-.35-.35h-1.69c-.19,0-.35.16-.35.35v1.09h-8.92c-.21,0-.37.18-.35.38.02.17.04.39.09.7.01.08.03.16.04.23.09.49.52.84,1.02.84h8.12v1.33h-7.61c-.42,0-.7.46-.5.83,1.54,2.82,3.88,4.41,6.35,5.17.22.07.45-.1.45-.34v-1.07c0-.44-.28-.83-.69-.98-.78-.29-1.71-.76-2.36-1.52h4.37v3.89c0,.19.16.35.35.35h1.69c.19,0,.35-.16.35-.35v-3.89h4.35c-.65.76-1.59,1.23-2.36,1.52-.41.15-.69.54-.69.98v1.07c0,.23.22.41.45.34,2.47-.76,4.81-2.34,6.35-5.17.2-.37-.07-.83-.5-.83h-7.59v-1.33h8.1Z"/>
  </g>
  <g>
    <path class="cls-1" d="M20.56,33.52c.76.65,1.85,1.39,2.75,1.91,0,0,0,0,0,0h0c.9.52,2.09,1.09,3.03,1.43.19.07.4.05.57-.05.09-.05.17-.09.24-.14.09-.05.12-.17.07-.26-.17-.29-.27-.69-.01-1.37.23-.61.69-1.11.88-1.3,1.95-1.85,4.33-3.12,6.87-3.75.81.94,1.77,1.62,2.72,2.14.21.11.47-.04.47-.28l.42-18.22s.04-.11.16-.11c.12,0,.16.11.16.11l.42,18.22c0,.24.26.39.47.28.96-.52,1.94-1.21,2.75-2.17,2.52.63,4.88,1.9,6.81,3.74.19.19.66.69.88,1.3.26.68.15,1.07-.01,1.37-.05.09-.02.21.07.26.07.04.15.09.24.14.18.1.39.12.57.05.95-.33,2.13-.91,3.03-1.43,0,0,0,0,0,0,0,0,0,0,0,0h0c.9-.52,1.99-1.26,2.75-1.91.15-.13.24-.32.24-.52,0-.1,0-.19,0-.27,0-.11-.09-.19-.19-.19-.34,0-1.08-.05-1.7-.44-.86-.53-1.38-1.09-1.38-1.09h0c-2.59-2.82-5.87-4.79-9.43-5.81.03-.38.06-.77.06-1.18,0-6.09-3.9-18.27-5.28-22.39-.15-.46-.8-.46-.95,0-1.38,4.11-5.27,16.3-5.28,22.39,0,.43.03.83.06,1.22-3.57,1.01-6.87,2.99-9.47,5.82h0s-.52.57-1.38,1.09c-.63.38-1.36.43-1.7.44-.11,0-.19.09-.19.19,0,.08,0,.17,0,.27,0,.2.09.39.24.52Z"/>
    <path class="cls-1" d="M37.71,59.07c-.08-.05-.17-.1-.24-.14-.09-.05-.21-.02-.26.07-.17.29-.46.58-1.18.7-.64.11-1.31-.04-1.57-.11-2.58-.76-4.87-2.19-6.68-4.08.41-1.17.52-2.34.49-3.42,0-.24-.26-.38-.47-.27l-15.99,8.75s-.11.02-.17-.08c-.06-.1.02-.19.02-.19l15.57-9.48c.2-.12.21-.42,0-.55-.93-.57-2.02-1.07-3.26-1.29-.71-2.5-.8-5.18-.17-7.77.07-.26.27-.91.69-1.42.46-.56.85-.67,1.19-.67.11,0,.19-.09.19-.19,0-.08,0-.17,0-.27,0-.2-.09-.39-.24-.52-.76-.65-1.85-1.39-2.75-1.91h0s0,0,0,0c0,0,0,0,0,0h0c-.9-.52-2.09-1.09-3.03-1.43-.19-.07-.4-.05-.57.05-.08.05-.17.09-.24.14-.09.05-.12.17-.07.26.17.29.49.96.47,1.69-.03,1.01-.26,1.74-.26,1.74h0c-1.15,3.65-1.22,7.49-.32,11.07-.34.16-.69.33-1.05.54-5.27,3.05-13.87,12.52-16.75,15.76-.32.36,0,.92.47.82,4.25-.86,16.75-3.58,22.03-6.62.37-.21.71-.44,1.03-.67,2.66,2.59,6.02,4.46,9.77,5.29h0s.75.17,1.64.65c.65.35,1.06.97,1.23,1.26.05.09.17.12.26.07.07-.04.15-.09.24-.14.17-.1.29-.28.33-.47.18-.99.28-2.3.28-3.34h0c0-1.04-.1-2.36-.28-3.34-.04-.2-.16-.37-.33-.47Z"/>
    <path class="cls-1" d="M76.43,66.04c-2.87-3.25-11.48-12.72-16.75-15.76-.37-.22-.73-.39-1.09-.56.91-3.6.85-7.44-.31-11.11h0s-.23-.73-.26-1.74c-.02-.73.31-1.4.47-1.69.05-.09.02-.21-.07-.26-.07-.04-.15-.09-.24-.14-.18-.1-.39-.12-.57-.05-.95.33-2.13.91-3.03,1.43,0,0,0,0,0,0,0,0,0,0,0,0-.9.52-1.99,1.26-2.75,1.91-.15.13-.24.32-.24.52,0,.1,0,.19,0,.27,0,.11.09.19.19.19.34,0,.73.11,1.19.67.41.5.62,1.15.69,1.42.63,2.61.54,5.31-.19,7.83-1.22.23-2.29.72-3.21,1.29-.2.12-.2.42,0,.55l15.57,9.48s.07.09.02.19c-.06.1-.17.08-.17.08l-15.99-8.75c-.21-.11-.47.03-.47.27-.03,1.09.08,2.28.51,3.47-1.81,1.87-4.08,3.28-6.64,4.03-.26.07-.93.22-1.57.11-.72-.12-1.01-.41-1.18-.7-.05-.09-.17-.12-.26-.07-.07.04-.15.09-.23.14-.17.1-.29.28-.33.47-.18.99-.28,2.3-.28,3.34h0c0,1.04.1,2.36.28,3.34.04.2.16.37.33.47.08.05.17.1.23.14.09.05.21.02.26-.07.17-.29.58-.91,1.23-1.26.89-.48,1.64-.65,1.64-.65h0c3.74-.83,7.09-2.69,9.75-5.27.31.22.63.43.99.64,5.28,3.04,17.78,5.76,22.03,6.62.47.1.79-.46.47-.82Z"/>
  </g>
</svg>