<svg width="26" height="26" viewBox="0 0 26 26" fill="none" xmlns="http://www.w3.org/2000/svg">
<g clip-path="url(#clip0_136_14)">
<rect width="26" height="26" fill="white"/>
<circle cx="13" cy="13" r="11" fill="#6764F0"/>
<path d="M13 0C16.4478 0 19.7544 1.36964 22.1924 3.80761C24.6304 6.24558 26 9.55219 26 13C26 16.4478 24.6304 19.7544 22.1924 22.1924C19.7544 24.6304 16.4478 26 13 26C9.55219 26 6.24558 24.6304 3.80761 22.1924C1.36964 19.7544 0 16.4478 0 13C0 9.55219 1.36964 6.24558 3.80761 3.80761C6.24558 1.36964 9.55219 0 13 0ZM9.28571 13.9286C8.5469 13.9286 7.83834 14.2221 7.31592 14.7445C6.79349 15.2669 6.5 15.9755 6.5 16.7143C6.5 19.0357 8.35714 21.3571 13 21.3571C17.6429 21.3571 19.5 19.0264 19.5 16.7143C19.5 15.9755 19.2065 15.2669 18.6841 14.7445C18.1617 14.2221 17.4531 13.9286 16.7143 13.9286H9.28571ZM13 4.64286C12.0149 4.64286 11.0702 5.03418 10.3736 5.73075C9.67704 6.42731 9.28571 7.37205 9.28571 8.35714C9.28571 9.34223 9.67704 10.287 10.3736 10.9835C11.0702 11.6801 12.0149 12.0714 13 12.0714C13.9851 12.0714 14.9298 11.6801 15.6264 10.9835C16.323 10.287 16.7143 9.34223 16.7143 8.35714C16.7143 7.37205 16.323 6.42731 15.6264 5.73075C14.9298 5.03418 13.9851 4.64286 13 4.64286Z" fill="#EAEAFD"/>
</g>
<defs>
<clipPath id="clip0_136_14">
<rect width="26" height="26" fill="white"/>
</clipPath>
</defs>
</svg>
